<?xml version="1.0" encoding="utf-8"?>
<!-- Generator: Adobe Illustrator 19.0.0, SVG Export Plug-In . SVG Version: 6.00 Build 0)  -->
<svg version="1.1" id="Layer_1" xmlns="http://www.w3.org/2000/svg" xmlns:xlink="http://www.w3.org/1999/xlink" x="0px" y="0px"
	 width="88.7px" height="159.5px" viewBox="0 0 88.7 159.5" style="enable-background:new 0 0 88.7 159.5;" xml:space="preserve">
<style type="text/css">
	.st0{fill:none;stroke:#000000;stroke-width:1.5152;stroke-miterlimit:10;}
	.st1{fill:none;stroke:#000000;stroke-width:0.9413;stroke-miterlimit:10;}
	.st2{stroke:#000000;stroke-width:1.5152;stroke-miterlimit:10;}
</style>
<g id="XMLID_1981_">
	<path id="XMLID_2012_" class="st0" d="M79.6,157.2H9.1c-4.3,0-7.9-3.5-7.9-7.9V9.7c0-4.3,3.5-7.9,7.9-7.9h70.5
		c4.3,0,7.9,3.5,7.9,7.9v139.7C87.5,153.7,83.9,157.2,79.6,157.2z"/>
	<g id="XMLID_1993_">
		<rect id="XMLID_1995_" x="35.2" y="10.3" class="st1" width="25.2" height="2.4"/>
		<circle id="XMLID_1994_" class="st1" cx="30.1" cy="11.5" r="1.8"/>
	</g>
	<path id="XMLID_1992_" class="st1" d="M76.1,140.7H12.6c-2.6,0-4.6-2.1-4.6-4.6V23.4c0-2.6,2.1-4.6,4.6-4.6h63.6
		c2.6,0,4.6,2.1,4.6,4.6v112.7C80.7,138.7,78.7,140.7,76.1,140.7z"/>
	<circle id="XMLID_1991_" class="st1" cx="43.5" cy="149.1" r="4.8"/>
	<g id="XMLID_1982_">
		<rect id="XMLID_1990_" x="29.1" y="59.9" class="st0" width="30.5" height="10.8"/>
		<rect id="XMLID_1989_" x="29.1" y="74.2" class="st0" width="30.5" height="10.8"/>
		<polyline id="XMLID_1988_" class="st0" points="29.1,95.7 29.1,88.5 59.6,88.5 59.6,95.7 		"/>
		<rect id="XMLID_1987_" x="29.1" y="95.7" class="st2" width="30.5" height="3.5"/>
		<line id="XMLID_1986_" class="st0" x1="44.4" y1="44" x2="44.4" y2="55.1"/>
		<line id="XMLID_1984_" class="st0" x1="49.7" y1="49.6" x2="39" y2="49.6"/>
		<line id="XMLID_1983_" class="st0" x1="49.7" y1="109.2" x2="39" y2="109.2"/>
	</g>
</g>
</svg>
