<?xml version="1.0" encoding="utf-8"?>
<!-- Generator: Adobe Illustrator 19.0.0, SVG Export Plug-In . SVG Version: 6.00 Build 0)  -->
<svg version="1.1" id="Layer_1" xmlns="http://www.w3.org/2000/svg" xmlns:xlink="http://www.w3.org/1999/xlink" x="0px" y="0px"
	 width="88.7px" height="159.5px" viewBox="0 0 88.7 159.5" style="enable-background:new 0 0 88.7 159.5;" xml:space="preserve">
<style type="text/css">
	.st0{fill:none;stroke:#151415;stroke-width:0.7718;stroke-linecap:round;stroke-linejoin:round;stroke-miterlimit:10;}
	.st1{fill:none;stroke:#151415;stroke-width:1.5;stroke-miterlimit:10;}
	.st2{fill:none;stroke:#151415;stroke-width:0.9319;stroke-miterlimit:10;}
</style>
<g id="XMLID_853_">
	<polyline id="XMLID_863_" class="st0" points="7.7,71.3 20.3,67.2 23.2,59 39.3,56.2 46.4,40.3 	"/>
	<polyline id="XMLID_862_" class="st0" points="31.1,57.6 29.7,48 17.3,42.2 	"/>
	<line id="XMLID_861_" class="st0" x1="29.7" y1="48" x2="33.9" y2="43.8"/>
	<path id="XMLID_860_" class="st0" d="M43.4,47c0,0,11.6,2.5,11.6,2.9c0,0.4,0,0.4,0,0.4"/>
	<polyline id="XMLID_859_" class="st0" points="12.2,69.8 16.7,75.2 31.1,75.2 37.2,88.1 49.2,88.1 53.7,99.2 40.9,115.2 	"/>
	<polyline id="XMLID_858_" class="st0" points="42.6,88.1 46.9,71.3 55,69.8 	"/>
	<line id="XMLID_857_" class="st0" x1="46.9" y1="71.3" x2="40.3" y2="66.5"/>
	<polyline id="XMLID_856_" class="st0" points="34.3,81.9 21.5,89.7 12.7,86.6 	"/>
	<line id="XMLID_855_" class="st0" x1="21.5" y1="89.7" x2="23" y2="99.2"/>
	<line id="XMLID_854_" class="st0" x1="48.5" y1="105.7" x2="55" y2="113.2"/>
</g>
<path id="XMLID_818_" class="st1" d="M80,158.5H8.7c-4.3,0-7.9-3.5-7.9-7.9V9.4c0-4.3,3.5-7.9,7.9-7.9H80c4.3,0,7.9,3.5,7.9,7.9
	v141.3C87.9,155,84.4,158.5,80,158.5z"/>
<path id="XMLID_817_" class="st2" d="M76.4,141.8H12.1c-2.6,0-4.6-2.1-4.6-4.6V23.3c0-2.6,2.1-4.6,4.6-4.6h64.3
	c2.6,0,4.6,2.1,4.6,4.6v113.9C81,139.8,79,141.8,76.4,141.8z"/>
<circle id="XMLID_816_" class="st2" cx="43.4" cy="150.3" r="4.9"/>
<g id="XMLID_812_">
	<rect id="XMLID_815_" x="34.2" y="10.1" class="st2" width="25.5" height="2.4"/>
	<circle id="XMLID_813_" class="st2" cx="29" cy="11.3" r="1.8"/>
</g>
</svg>
