<?xml version="1.0" encoding="utf-8"?>
<!-- Generator: Adobe Illustrator 19.0.0, SVG Export Plug-In . SVG Version: 6.00 Build 0)  -->
<svg version="1.1" id="Layer_1" xmlns="http://www.w3.org/2000/svg" xmlns:xlink="http://www.w3.org/1999/xlink" x="0px" y="0px"
	 width="88.7px" height="159.5px" viewBox="0 0 88.7 159.5" style="enable-background:new 0 0 88.7 159.5;" xml:space="preserve">
<style type="text/css">
	.st0{fill:none;stroke:#151415;stroke-width:1.5;stroke-miterlimit:10;}
	.st1{fill:none;stroke:#151415;stroke-width:0.9319;stroke-miterlimit:10;}
	.st2{fill:none;stroke:#000000;stroke-width:1.4339;stroke-miterlimit:10;}
</style>
<g id="XMLID_794_">
	<path id="XMLID_805_" class="st0" d="M79.3,157.9H9.7c-4.3,0-7.9-3.5-7.9-7.9V9.9c0-4.3,3.5-7.9,7.9-7.9h69.6
		c4.3,0,7.9,3.5,7.9,7.9v140.2C87.2,154.4,83.7,157.9,79.3,157.9z"/>
	<path id="XMLID_804_" class="st1" d="M75.9,141.4H13.1c-2.6,0-4.6-2.1-4.6-4.6v-113c0-2.6,2.1-4.6,4.6-4.6h62.8
		c2.6,0,4.6,2.1,4.6,4.6v113C80.5,139.3,78.5,141.4,75.9,141.4z"/>
	<ellipse id="XMLID_803_" class="st1" cx="43.7" cy="149.7" rx="4.8" ry="4.8"/>
	<g id="XMLID_796_">
		<rect id="XMLID_802_" x="34.6" y="10.6" class="st1" width="24.9" height="2.4"/>
		<ellipse id="XMLID_801_" class="st1" cx="29.5" cy="11.8" rx="1.7" ry="1.8"/>
	</g>
</g>
<g id="XMLID_789_">
	<rect id="XMLID_1921_" x="36.7" y="74.8" class="st2" width="4.4" height="9.6"/>
	<polygon id="XMLID_1920_" class="st2" points="41.2,84.3 50.4,90.2 50.4,67.8 41.2,74.8 	"/>
	<line id="XMLID_1919_" class="st2" x1="63.6" y1="60.1" x2="25.5" y2="98"/>
	<line id="XMLID_1914_" class="st2" x1="63.5" y1="98.1" x2="25.6" y2="60"/>
</g>
</svg>
